<svg width="20" height="20" viewBox="0 0 20 20" fill="none" xmlns="http://www.w3.org/2000/svg">
<path fill-rule="evenodd" clip-rule="evenodd" d="M15 8.33333C15 7.87417 14.6267 7.5 14.1667 7.5C13.7067 7.5 13.3333 7.87417 13.3333 8.33333C13.3333 8.7925 13.7067 9.16667 14.1667 9.16667C14.6267 9.16667 15 8.7925 15 8.33333ZM16.6667 8.33333C16.6667 9.71167 15.545 10.8333 14.1667 10.8333C12.7883 10.8333 11.6667 9.71167 11.6667 8.33333C11.6667 6.955 12.7883 5.83333 14.1667 5.83333C15.545 5.83333 16.6667 6.955 16.6667 8.33333ZM9.16666 5.83333C9.16666 4.91417 8.41916 4.16667 7.49999 4.16667C6.58082 4.16667 5.83332 4.91417 5.83332 5.83333C5.83332 6.7525 6.58082 7.5 7.49999 7.5C8.41916 7.5 9.16666 6.7525 9.16666 5.83333ZM10.8333 5.83333C10.8333 7.67167 9.33832 9.16667 7.49999 9.16667C5.66166 9.16667 4.16666 7.67167 4.16666 5.83333C4.16666 3.995 5.66166 2.5 7.49999 2.5C9.33832 2.5 10.8333 3.995 10.8333 5.83333ZM11.6167 12.5383C12.3408 11.9783 13.2325 11.6667 14.1667 11.6667C16.4642 11.6667 18.3333 13.5358 18.3333 15.8333C18.3333 16.2933 17.9608 16.6667 17.5 16.6667C17.0392 16.6667 16.6667 16.2933 16.6667 15.8333C16.6667 14.455 15.545 13.3333 14.1667 13.3333C13.5975 13.3333 13.0567 13.5283 12.62 13.8742C13.0733 14.7042 13.3333 15.6558 13.3333 16.6667C13.3333 17.1267 12.9608 17.5 12.5 17.5C12.0392 17.5 11.6667 17.1267 11.6667 16.6667C11.6667 14.3692 9.79749 12.5 7.49999 12.5C5.20249 12.5 3.33332 14.3692 3.33332 16.6667C3.33332 17.1267 2.96082 17.5 2.49999 17.5C2.03916 17.5 1.66666 17.1267 1.66666 16.6667C1.66666 13.45 4.28416 10.8333 7.49999 10.8333C9.10582 10.8333 10.5608 11.4858 11.6167 12.5383Z" fill="#999999"/>
</svg>
