<svg width="28" height="28" viewBox="0 0 28 28" fill="none" xmlns="http://www.w3.org/2000/svg">
<path fill-rule="evenodd" clip-rule="evenodd" d="M4.60634 7H23.3932C24.0022 7 24.5003 7.49817 24.5003 8.10717V8.22617C24.5003 8.83517 24.0022 9.33333 23.3932 9.33333H4.60634C3.99734 9.33333 3.50034 8.83517 3.50034 8.22617V8.10717C3.50034 7.49817 3.99734 7 4.60634 7ZM23.3932 12.8333H4.60634C3.99734 12.8333 3.50034 13.3315 3.50034 13.9405V14.0595C3.50034 14.6685 3.99734 15.1667 4.60634 15.1667H23.3932C24.0022 15.1667 24.5003 14.6685 24.5003 14.0595V13.9405C24.5003 13.3315 24.0022 12.8333 23.3932 12.8333ZM23.3932 18.6667H4.60634C3.99734 18.6667 3.50034 19.1648 3.50034 19.7738V19.8928C3.50034 20.5018 3.99734 21 4.60634 21H23.3932C24.0022 21 24.5003 20.5018 24.5003 19.8928V19.7738C24.5003 19.1648 24.0022 18.6667 23.3932 18.6667Z" fill="#BFBFBF"/>
</svg>
