<svg width="20" height="20" viewBox="0 0 20 20" fill="none" xmlns="http://www.w3.org/2000/svg">
<path fill-rule="evenodd" clip-rule="evenodd" d="M5 4.16667H15.0034C15.4636 4.16667 15.8367 4.53976 15.8367 5V10.2655C15.8367 10.7257 15.4636 11.0988 15.0034 11.0988H5C4.53976 11.0988 4.16667 10.7257 4.16667 10.2655V5C4.16667 4.53976 4.53976 4.16667 5 4.16667ZM2.5 5C2.5 3.61929 3.61929 2.5 5 2.5H15.0034C16.3841 2.5 17.5034 3.61929 17.5034 5V10.2655C17.5034 11.6462 16.3841 12.7655 15.0034 12.7655H5C3.61929 12.7655 2.5 11.6462 2.5 10.2655V5ZM5.65929 14.3414C4.78706 14.3414 4.07998 15.0485 4.07998 15.9207C4.07998 16.7929 4.78706 17.5 5.65929 17.5H14.3455C15.2177 17.5 15.9248 16.7929 15.9248 15.9207C15.9248 15.0485 15.2177 14.3414 14.3455 14.3414H5.65929Z" fill="#999999"/>
</svg>
