<svg width="20" height="20" viewBox="0 0 20 20" fill="none" xmlns="http://www.w3.org/2000/svg">
<path fill-rule="evenodd" clip-rule="evenodd" d="M5 2.5C3.61929 2.5 2.5 3.61929 2.5 5V10.2655C2.5 11.6462 3.61929 12.7655 5 12.7655H15.0034C16.3841 12.7655 17.5034 11.6462 17.5034 10.2655V5C17.5034 3.61929 16.3841 2.5 15.0034 2.5H5ZM5.65929 14.3414C4.78706 14.3414 4.07998 15.0485 4.07998 15.9207C4.07998 16.7929 4.78706 17.5 5.65929 17.5H14.3455C15.2177 17.5 15.9248 16.7929 15.9248 15.9207C15.9248 15.0485 15.2177 14.3414 14.3455 14.3414H5.65929Z" fill="#BFBFBF"/>
</svg>
